<?xml version="1.0" encoding="UTF-8" standalone="no"?>
<svg
   xmlns:dc="http://purl.org/dc/elements/1.1/"
   xmlns:cc="http://creativecommons.org/ns#"
   xmlns:rdf="http://www.w3.org/1999/02/22-rdf-syntax-ns#"
   xmlns:svg="http://www.w3.org/2000/svg"
   xmlns="http://www.w3.org/2000/svg"
   viewBox="0 0 346.392 188.912"
   height="188.912"
   width="346.392"
   xml:space="preserve"
   version="1.1"
   id="svg2"><metadata
     id="metadata8"><rdf:RDF><cc:Work
         rdf:about=""><dc:format>image/svg+xml</dc:format><dc:type
           rdf:resource="http://purl.org/dc/dcmitype/StillImage" /></cc:Work></rdf:RDF></metadata><defs
     id="defs6"><clipPath
       id="clipPath20"
       clipPathUnits="userSpaceOnUse"><path
         id="path22"
         d="m 0,141.684 259.794,0 L 259.794,0 0,0 0,141.684 Z" /></clipPath><clipPath
       id="clipPath52"
       clipPathUnits="userSpaceOnUse"><path
         id="path54"
         d="m 0,141.684 259.794,0 L 259.794,0 0,0 0,141.684 Z" /></clipPath><clipPath
       id="clipPath88"
       clipPathUnits="userSpaceOnUse"><path
         id="path90"
         d="m 0,141.684 259.794,0 L 259.794,0 0,0 0,141.684 Z" /></clipPath><clipPath
       id="clipPath100"
       clipPathUnits="userSpaceOnUse"><path
         id="path102"
         d="m 0,141.684 259.794,0 L 259.794,0 0,0 0,141.684 Z" /></clipPath><clipPath
       id="clipPath148"
       clipPathUnits="userSpaceOnUse"><path
         id="path150"
         d="m 0,141.684 259.794,0 L 259.794,0 0,0 0,141.684 Z" /></clipPath></defs><g
     transform="matrix(1.3333333,0,0,-1.3333333,0,188.912)"
     id="g10"><g
       transform="translate(5.9167,5.9167)"
       id="g12"><path
         id="path14"
         style="fill:#58899a;fill-opacity:1;fill-rule:nonzero;stroke:none"
         d="m 0,0 233.167,0 -5.25,5.917 -4,8.916 -3,7.834 -8.5,2.958 -5.834,4.542 -8.699,9.5 -9.213,12.912 -6.421,-1.746 -11.333,-7.907 -9.167,-1.093 -10.833,4.167 -10.167,8.5 -5.667,7.667 -4.333,12.666 -6.5,9 -4.208,4.972 -5.917,4.862 -3.28,-2.18 -3.762,-6.32 -5.666,-6.334 L 94.917,74 89.903,71.794 77.471,70.5 l -8.554,-6.833 -15,-12 L 42.292,42.926 32.805,33.833 25.25,28.167 21.75,21.463 14.417,16.5 8.486,11.344 2.417,4 0,0 Z" /></g><g
       id="g16"><g
         clip-path="url(#clipPath20)"
         id="g18"><g
           transform="translate(89.1581,73.8333)"
           id="g24"><path
             id="path26"
             style="fill:#d8e2eb;fill-opacity:1;fill-rule:nonzero;stroke:none"
             d="m 0,0 c 0,0 -0.071,-8.121 -6.917,-14.083 0,0 -6.739,-7.206 -7.408,-10.908 -0.669,-3.701 1.167,-3.092 2.5,-2.926 1.334,0.167 7,4.352 7.5,2.926 0.5,-1.426 -0.712,-3.021 -1.592,-5.259 -0.879,-2.238 -4.629,-3.479 -4.241,-6 0.387,-2.521 4.483,-1.667 4.241,-3.5 -0.241,-1.833 -2.725,-5.574 -1.317,-6.704 1.409,-1.129 5.909,-3.796 6.243,-6.629 0.333,-2.834 0.649,-8.5 0.991,-10.334 0.342,-1.833 1.342,-4.75 1.342,-4.75 l -2.333,-1.041 -82.25,0 c 0,0 2.75,7.458 5.916,10.291 3.167,2.834 6,5.667 9.167,8 3.167,2.334 7.5,9.334 11,11.667 3.5,2.333 11.25,8.583 15.333,13.5 4.084,4.917 14.834,11.333 18.667,14.333 3.833,3 19.667,14 19.667,14 L 0,0 Z" /></g><g
           transform="translate(117.6435,98.8244)"
           id="g28"><path
             id="path30"
             style="fill:#d8e2eb;fill-opacity:1;fill-rule:nonzero;stroke:none"
             d="m 0,0 c 0,0 -5.477,-8.908 -7.31,-11.074 -1.833,-2.167 -7.667,-6.334 -9.5,-7.667 -1.833,-1.333 -3.667,-1.372 -3.667,-1.372 0,0 4.834,-5.961 6.334,-8.628 1.5,-2.667 5.833,-9 5.833,-9 l 4.792,-2.25 5.916,-3.75 -1.041,8.333 2.488,10.417 2.544,2.583 -3.991,1.295 -1.208,3.872 2.655,4.66 1.178,3.673 -1.178,3 L 2.398,-1.421 0,0 2.398,-1.421" /></g><g
           transform="translate(188.1875,57.5423)"
           id="g32"><path
             id="path34"
             style="fill:#d8e2eb;fill-opacity:1;fill-rule:nonzero;stroke:none"
             d="m 0,0 -4.187,-4.626 -7,-4.5 -2.667,-0.333 -7.667,-8.333 -6.833,-8.209 -6.333,-4.162 c 0,0 -5.667,-5.629 -5.667,-6.129 0,-0.5 -5.5,-9.417 -5.5,-9.417 l -5,-5.917 2.833,-1.291 36.334,0 1.666,5.958 3.5,6.678 -0.166,3.655 -3.334,0.667 -3,0 -0.666,3.167 5.666,5.937 6.167,7.396 3.833,2.438 0,4.229 2.084,3.166 2.338,3.167 L 4.063,-3.376 0,0 Z" /></g></g></g><g
       transform="translate(89.8333,73.4167)"
       id="g36"><path
         id="path38"
         style="fill:#ffffff;fill-opacity:1;fill-rule:nonzero;stroke:none"
         d="m 0,0 -2,-8.083 5.083,-0.584 1.417,-5.916 2.833,-2.878 6,-0.872 3.167,-1.417 4.266,-4.083 7.044,-2 4.497,-2.167 -2.099,6.333 -2.398,5 -6.143,3.5 -4.631,4.5 L 7.667,5.5 0,0 Z" /></g><g
       transform="translate(120.5,97.25)"
       id="g40"><path
         id="path42"
         style="fill:#ffffff;fill-opacity:1;fill-rule:nonzero;stroke:none"
         d="m 0,0 0.988,-4.333 1.179,-5.334 -3.066,-4.652 0,-4.22 3.066,-2.294 4.166,0.537 3.834,-4.037 3.25,-8.167 6.75,-2.583 5.833,-7.084 4.333,0.873 -9.5,11.461 -2.666,8.75 -3.45,7.461 L 8,-6.5 2.833,1.574 0,0 Z" /></g><g
       transform="translate(193.1667,54.1667)"
       id="g44"><path
         id="path46"
         style="fill:#ffffff;fill-opacity:1;fill-rule:nonzero;stroke:none"
         d="m 0,0 0.598,-4.199 -1.515,-4.551 2.338,-1.5 2.246,-3.396 1.333,-4.604 2.333,-1.333 5.834,-1.383 5.666,0 3.352,-1.659 -4.852,8.208 -6.699,5.667 -3.967,6 -4,5.333 L 0,0 Z" /></g><g
       id="g48"><g
         clip-path="url(#clipPath52)"
         id="g50"><g
           transform="translate(87.9167,73.8333)"
           id="g56"><path
             id="path58"
             style="fill:#3e3b3a;fill-opacity:1;fill-rule:nonzero;stroke:none"
             d="m 0,0 c 0,0 0.964,-3.182 -0.75,-7 -1.833,-4.083 -10.167,-11.833 -11.833,-14.417 -1.667,-2.583 -3.167,-7.25 0.5,-8.416 3.666,-1.167 6.12,4.487 8.25,3.333 2,-1.083 -6.68,-6.936 -6.084,-10.417 0.5,-2.916 4.334,-1.666 4,-4.416 -0.323,-2.668 -2.273,-3.348 -1.583,-5.417 0.917,-2.75 6.583,-3.167 6,-8.583 -0.543,-5.04 -0.5,-7.25 0.583,-9.25 1.084,-2 2.334,-3.584 2.334,-3.584 l 3.583,0.5 c 0,0 -2.2,2.657 -3.083,5.75 -1.334,4.667 1.5,6.084 -0.084,10.334 -1.383,3.712 -3,3.75 -4.166,4.5 -1.167,0.75 -2.767,1.5 -2.342,2.583 0.425,1.083 1.721,4.906 0.508,6.333 -1.416,1.667 -3.416,-0.083 -3.75,2.5 -0.312,2.42 9.869,7.209 6,11.417 -2.758,3 -7.166,-4.167 -9.333,-2.417 -3.002,2.425 2.5,7.307 5.167,10.219 C -2.444,-12.474 2,-8.833 2.648,-4.963 3.162,-1.893 2.667,0 2.667,0 L 0,0 Z" /></g><g
           transform="translate(34.75,5.25)"
           id="g60"><path
             id="path62"
             style="fill:#3e3b3a;fill-opacity:1;fill-rule:nonzero;stroke:none"
             d="m 0,0 c 0,0 0.583,2.167 5.917,6.333 5.333,4.167 6.666,7.834 6.25,10.834 -0.417,3 1.583,4.416 2.5,4.916 0.916,0.5 1.333,2.584 -0.584,2.084 C 12.167,23.667 10,21.5 9.917,17.667 9.833,13.833 6,10.25 3.5,8.417 1,6.583 -2.333,3.5 -3.917,1.25 -5.5,-1 0,0 0,0" /></g><g
           transform="translate(87.8333,65.3333)"
           id="g64"><path
             id="path66"
             style="fill:#3e3b3a;fill-opacity:1;fill-rule:nonzero;stroke:none"
             d="m 0,0 c 0,0 4.5,2.167 6,0.667 1.5,-1.5 1.25,-8.584 4.667,-9 3.416,-0.417 6.333,1.416 9.083,-2.5 2.75,-3.917 4.833,-3.75 6.75,-4.167 1.917,-0.417 4.917,-1.917 4.917,-1.917 0,0 -0.334,4.667 -2.5,6.834 -2.167,2.166 -5.667,3 -8.25,5.833 C 18.083,-1.417 14.667,4 13.5,6 12.333,8 8.667,11.667 8.667,11.667 l 2.833,0.916 c 0,0 2.583,-2.333 4.208,-5.416 1.625,-3.084 4.959,-8 7.709,-10.084 2.75,-2.083 6.666,-4.666 6.666,-4.666 0,0 -0.25,5.916 0.084,11.083 0.333,5.167 4.833,10.417 8.916,9.833 4.084,-0.583 6.334,-9.25 8,-11.583 1.667,-2.333 2.917,-2.333 4.834,-3 1.916,-0.667 5.75,-5.917 7.25,-6.917 1.5,-1 4.5,-0.916 4.5,-0.916 l 2,-2.5 c 0,0 -4.417,-1.084 -7.834,0.833 -3.416,1.917 -4,5.417 -7.5,6.667 -3.5,1.25 -4.666,1.25 -6,4.916 C 43,4.5 41.333,11.167 37.917,10 34.5,8.833 31.667,0.667 33.583,-7.25 c 1.917,-7.917 3.584,-10.167 6.25,-12.667 2.667,-2.5 6.834,-7.583 8.75,-9.083 1.917,-1.5 1.5,-2.5 0.5,-3.083 -1,-0.584 -6.083,4.166 -10.833,8.083 -4.75,3.917 -11.333,6.083 -14.25,6.667 -2.917,0.583 -5.333,5.583 -8.583,6 -3.25,0.416 -6.334,-1.005 -9.167,1.956 -2.833,2.96 -0.917,8.294 -2.75,8.21 C 1.667,-1.25 -1.25,-1.833 -1.25,-1.833 L 0,0 Z" /></g><g
           transform="translate(125.3333,77.6667)"
           id="g68"><path
             id="path70"
             style="fill:#3e3b3a;fill-opacity:1;fill-rule:nonzero;stroke:none"
             d="m 0,0 c 0,0 -5.083,0.833 -5.292,3.333 -0.208,2.5 1.084,3.25 2.646,4.667 1.563,1.417 1.479,3.25 0.646,4.917 -0.833,1.666 -1.303,3.916 -1.193,5.583 0.11,1.667 -2.121,1.167 -2.121,1.167 0,0 -0.519,-4.834 0.564,-6.667 C -3.667,11.167 -3.417,9.917 -6,7.5 -8.583,5.083 -7.897,0.737 -6,-0.417 -4.103,-1.57 -3.193,-2.583 -3.193,-2.583 L 0,-0.333 0,0 Z" /></g><g
           transform="translate(178.1667,48.5)"
           id="g72"><path
             id="path74"
             style="fill:#3e3b3a;fill-opacity:1;fill-rule:nonzero;stroke:none"
             d="m 0,0 c 0,0 -6.083,-5.417 -11,-10.667 -4.917,-5.25 -8,-8.583 -11.583,-11 -3.584,-2.416 -6.084,-5.75 -7.25,-8.25 -1.167,-2.5 -4.084,-7.333 -6.084,-9.583 -2,-2.25 -2.25,-2.583 -2.25,-2.583 l -6.083,-0.5 c 0,0 4.667,2.916 6.667,5.833 2,2.917 4.166,9.083 7.5,13.083 3.333,4 9,6.75 13,11.417 4,4.667 10.75,10.417 13.25,11.833 C -1.333,1 0,0 0,0" /></g><g
           transform="translate(191.8333,53.5)"
           id="g76"><path
             id="path78"
             style="fill:#3e3b3a;fill-opacity:1;fill-rule:nonzero;stroke:none"
             d="m 0,0 c 0,0 2.083,-3.083 0.583,-4.083 -1.5,-1 -2.666,-3.167 -2.666,-4.667 0,-1.5 0.833,-3.333 -2.5,-4.667 -3.334,-1.333 -5.917,-6.25 -8.334,-8.542 -2.416,-2.291 -6.416,-5.708 -5.75,-9.124 C -18,-34.5 -14.083,-33 -12.25,-33 c 1.833,0 1.833,-2.167 -0.333,-5.333 -2.167,-3.167 -3.25,-5.584 -3.917,-7.917 l -0.667,-2.333 3.5,1 c 0,0 0.417,3.666 2.334,6.416 1.916,2.75 3.916,5.084 3,8.25 -0.917,3.167 -3.25,2.417 -5.334,2.167 -2.083,-0.25 -3.583,1.25 -1.75,3.083 1.834,1.834 7.334,7.5 8.834,9.417 1.5,1.917 2.25,2.083 4,3 1.75,0.917 2.416,1.583 2.666,2.833 0.25,1.25 0.084,2.834 0.084,2.834 0,0 3.583,-0.584 3.916,-3.584 0.334,-3 0.834,-6.347 3.75,-7.132 2.917,-0.784 4.917,-0.368 8.417,-0.868 3.5,-0.5 8,-1.75 8,-1.75 l -2,2.618 c 0,0 -4.167,1.466 -7.583,1.716 -3.417,0.25 -6.5,0.166 -7.334,3.416 -0.833,3.25 -1.5,5.584 -3.333,6.917 -1.833,1.333 -2.667,1.583 -2.667,1.583 0,0 1.917,1.25 2,3.167 C 3.417,-1.583 1.75,0.667 1.75,0.667 L 0,0 Z" /></g><g
           transform="translate(240.5,4.5833)"
           id="g80"><path
             id="path82"
             style="fill:#3e3b3a;fill-opacity:1;fill-rule:nonzero;stroke:none"
             d="m 0,0 c 0,-1.105 -0.895,-2 -2,-2 l -231.667,0 c -1.104,0 -2,0.895 -2,2 l 0,0.083 c 0,1.105 0.896,2 2,2 L -2,2.083 c 1.105,0 2,-0.895 2,-2 L 0,0 Z" /></g></g></g><g
       id="g84"><g
         clip-path="url(#clipPath88)"
         id="g86"><g
           transform="translate(6.75,11.3333)"
           id="g92"><path
             id="path94"
             style="fill:#d53527;fill-opacity:1;fill-rule:nonzero;stroke:none"
             d="m 0,0 c 0,0 2.167,1.083 4.167,3.25 2,2.167 3.583,5.75 6,7.5 2.416,1.75 7.583,4.154 9.833,7.41 2.25,3.257 2,4.34 5.167,6.673 3.166,2.334 9.166,6.25 11.083,8.584 1.917,2.333 5.167,6.333 8.417,8.25 3.25,1.916 10.583,7.416 14,10.166 3.416,2.75 6.666,5.334 8.916,7.584 2.25,2.25 7.667,5.839 10.417,6.961 2.75,1.122 6.583,1.372 9.417,1.372 2.833,0 8.25,2.083 12.666,6.5 2.5,2.5 4.834,5.667 6.417,8 1.583,2.333 2.917,5.083 2.917,5.083 L 118,88.25 c 0,0 1.25,-3.75 3.583,-5.917 2.334,-2.166 5,-5.416 7.167,-9.083 2.167,-3.667 3.5,-4.917 4.083,-7.333 0.584,-2.417 1.334,-6.334 2.917,-9.25 1.583,-2.917 5.25,-6.917 7.167,-8.584 1.916,-1.666 4.916,-4.916 7.916,-6.5 3,-1.583 6.494,-4.35 11.505,-3.886 3.328,0.308 5.829,-0.188 5.829,-0.188 0,0 4.52,2.637 6.541,4.324 2.544,2.124 6.104,6.667 6.104,6.667 l 9.188,-1 c 0,0 3.583,-6.583 7,-10.333 3.417,-3.75 7.833,-9.667 9.583,-11.5 1.75,-1.834 2.334,-3.181 5.5,-3.799 3.167,-0.618 6.667,-1.368 9,-4.201 2.334,-2.834 4.7,-9.411 6.167,-12.584 C 228.461,2.465 230.417,-1 230.417,-1 l -0.667,-6.729 c 0,0 -3.749,6.658 -4.938,9.688 -1.27,3.24 -3.562,11.041 -5.229,13.041 -1.666,2 -2.333,2.75 -6.666,3.208 -4.334,0.459 -6.75,3.042 -8.834,6.375 -2.083,3.334 -5.833,6.251 -8.583,10.168 -2.75,3.916 -6.824,9.533 -6.824,9.533 l -6.926,1.987 c 0,0 -1.88,-2.697 -5.604,-5.827 -2.934,-2.468 -6.398,-5.092 -7.356,-5.679 -0.702,-0.429 -1.54,0.611 -3.538,0.655 -3.598,0.08 -4.252,-0.337 -8.169,0.497 -3.916,0.833 -6.916,2.5 -10.333,4.833 -3.417,2.333 -10.083,9 -12.25,12.667 -2.167,3.666 -2.754,11.035 -5.333,14.961 -2.58,3.926 -3.917,5.955 -8,10.039 -4.084,4.083 -5.777,8 -5.777,8 l -4.497,-0.347 c 0,0 -0.643,-4.237 -5.476,-9.737 0,0 -4.584,-5.083 -9,-8 -4.417,-2.916 -8.75,-3.25 -8.75,-3.25 l -9.75,-0.916 c 0,0 -4.167,-2.667 -7.417,-5.5 C 67.25,55.833 64.667,53.083 58.667,48.5 52.667,43.917 49.083,41.917 45.25,38.833 41.417,35.75 41.417,34 37.667,30.5 c -3.75,-3.5 -5.584,-3.167 -9.584,-7 -4,-3.833 -4.25,-5.5 -6.25,-7.917 -2,-2.416 -4.75,-3.416 -7.75,-5.666 -3,-2.25 -3.916,-3.25 -5.333,-5.584 C 7.333,2 2.917,-2.417 2.917,-2.417 L 0,0.25" /></g></g></g><g
       id="g96"><g
         clip-path="url(#clipPath100)"
         id="g98"><g
           transform="translate(5.9165,1.4998)"
           id="g104"><path
             id="path106"
             style="fill:#ffffff;fill-opacity:1;fill-rule:nonzero;stroke:none"
             d="m 0,0 c -2.435,0 -4.417,1.981 -4.417,4.417 0,2.435 1.982,4.416 4.417,4.416 2.436,0 4.417,-1.981 4.417,-4.416 C 4.417,1.981 2.436,0 0,0" /></g><g
           transform="translate(5.9167,11.8333)"
           id="g108"><path
             id="path110"
             style="fill:#d53527;fill-opacity:1;fill-rule:nonzero;stroke:none"
             d="m 0,0 c -3.268,0 -5.917,-2.649 -5.917,-5.917 0,-3.267 2.649,-5.916 5.917,-5.916 3.268,0 5.917,2.649 5.917,5.916 C 5.917,-2.649 3.268,0 0,0 m 0,-3 c 1.608,0 2.917,-1.308 2.917,-2.917 0,-1.608 -1.309,-2.916 -2.917,-2.916 -1.608,0 -2.917,1.308 -2.917,2.916 C -2.917,-4.308 -1.608,-3 0,-3" /></g><g
           transform="translate(89.1582,73.2943)"
           id="g112"><path
             id="path114"
             style="fill:#ffffff;fill-opacity:1;fill-rule:nonzero;stroke:none"
             d="m 0,0 c -2.436,0 -4.417,1.981 -4.417,4.417 0,2.435 1.981,4.416 4.417,4.416 2.435,0 4.417,-1.981 4.417,-4.416 C 4.417,1.981 2.435,0 0,0" /></g><g
           transform="translate(89.1581,83.6278)"
           id="g116"><path
             id="path118"
             style="fill:#d53527;fill-opacity:1;fill-rule:nonzero;stroke:none"
             d="m 0,0 c -3.268,0 -5.917,-2.649 -5.917,-5.917 0,-3.267 2.649,-5.916 5.917,-5.916 3.268,0 5.917,2.649 5.917,5.916 C 5.917,-2.649 3.268,0 0,0 m 0,-3 c 1.608,0 2.917,-1.308 2.917,-2.917 0,-1.608 -1.309,-2.916 -2.917,-2.916 -1.608,0 -2.917,1.308 -2.917,2.916 C -2.917,-4.308 -1.608,-3 0,-3" /></g><g
           transform="translate(120.0415,97.0833)"
           id="g120"><path
             id="path122"
             style="fill:#ffffff;fill-opacity:1;fill-rule:nonzero;stroke:none"
             d="m 0,0 c -2.435,0 -4.417,1.981 -4.417,4.417 0,2.435 1.982,4.416 4.417,4.416 2.435,0 4.417,-1.981 4.417,-4.416 C 4.417,1.981 2.435,0 0,0" /></g><g
           transform="translate(120.0417,107.4167)"
           id="g124"><path
             id="path126"
             style="fill:#d53527;fill-opacity:1;fill-rule:nonzero;stroke:none"
             d="m 0,0 c -3.268,0 -5.917,-2.649 -5.917,-5.917 0,-3.267 2.649,-5.916 5.917,-5.916 3.268,0 5.917,2.649 5.917,5.916 C 5.917,-2.649 3.268,0 0,0 m 0,-3 c 1.608,0 2.917,-1.308 2.917,-2.917 0,-1.608 -1.309,-2.916 -2.917,-2.916 -1.608,0 -2.917,1.308 -2.917,2.916 C -2.917,-4.308 -1.608,-3 0,-3" /></g><g
           transform="translate(192.25,54.4168)"
           id="g128"><path
             id="path130"
             style="fill:#ffffff;fill-opacity:1;fill-rule:nonzero;stroke:none"
             d="m 0,0 c -2.436,0 -4.417,1.981 -4.417,4.417 0,2.435 1.981,4.416 4.417,4.416 2.436,0 4.417,-1.981 4.417,-4.416 C 4.417,1.981 2.436,0 0,0" /></g><g
           transform="translate(192.25,64.75)"
           id="g132"><path
             id="path134"
             style="fill:#d53527;fill-opacity:1;fill-rule:nonzero;stroke:none"
             d="m 0,0 c -3.268,0 -5.917,-2.649 -5.917,-5.917 0,-3.267 2.649,-5.916 5.917,-5.916 3.268,0 5.917,2.649 5.917,5.916 C 5.917,-2.649 3.268,0 0,0 m 0,-3 c 1.608,0 2.917,-1.308 2.917,-2.917 0,-1.608 -1.309,-2.916 -2.917,-2.916 -1.608,0 -2.917,1.308 -2.917,2.916 C -2.917,-4.308 -1.608,-3 0,-3" /></g><g
           transform="translate(239.083,1.4998)"
           id="g136"><path
             id="path138"
             style="fill:#ffffff;fill-opacity:1;fill-rule:nonzero;stroke:none"
             d="m 0,0 c -2.435,0 -4.416,1.981 -4.416,4.417 0,2.435 1.981,4.416 4.416,4.416 2.436,0 4.417,-1.981 4.417,-4.416 C 4.417,1.981 2.436,0 0,0" /></g><g
           transform="translate(239.0833,11.8333)"
           id="g140"><path
             id="path142"
             style="fill:#d53527;fill-opacity:1;fill-rule:nonzero;stroke:none"
             d="m 0,0 c -3.268,0 -5.917,-2.649 -5.917,-5.917 0,-3.267 2.649,-5.916 5.917,-5.916 3.268,0 5.917,2.649 5.917,5.916 C 5.917,-2.649 3.268,0 0,0 m 0,-3 c 1.608,0 2.917,-1.308 2.917,-2.917 0,-1.608 -1.309,-2.916 -2.917,-2.916 -1.608,0 -2.917,1.308 -2.917,2.916 C -2.917,-4.308 -1.608,-3 0,-3" /></g></g></g><g
       id="g144"><g
         clip-path="url(#clipPath148)"
         id="g146"><g
           transform="translate(148.2148,113.6048)"
           id="g152"><path
             id="path154"
             style="fill:#d53527;fill-opacity:1;fill-rule:nonzero;stroke:none"
             d="M 0,0 C 0.208,0.062 1.5,2.063 4.937,1.687 8.375,1.312 8.772,-2.582 8.5,-6.188 8.16,-10.688 4.895,-18.365 2.935,-21.981 1.468,-24.689 0.417,-26.437 1.333,-28.25 c 0.917,-1.812 2.978,-1.901 4.229,-0.312 1.41,1.79 4.845,8.056 6.376,13.499 1.722,6.125 0.75,11.25 0.75,11.25 0,0 1.625,1.673 3.499,0.399 1.875,-1.273 -0.208,-4.683 -1.437,-6.836 -2.152,-3.771 -3.215,-8.946 1.25,-10.312 3.473,-1.063 6.41,1.067 8.687,6.187 1.716,3.856 3.375,3.625 3.625,2.562 0.25,-1.062 -1.512,-4.18 -2.375,-5.687 -1.288,-2.25 -2.339,-5.437 0.563,-7.375 2.656,-1.773 6.324,-1.95 7.063,0.313 0.66,2.022 -0.184,2.509 -1.565,2.787 -1.07,0.216 -2.498,0.025 -2.498,0.775 0,0.75 3.522,4.995 3.375,9.25 -0.125,3.625 -4.59,5.875 -7.813,3.125 -2.961,-2.527 -4.75,-8.312 -6.625,-8 -1.875,0.313 -0.571,3.28 0.125,4.52 1.1,1.959 3.098,5.48 1.063,8.691 C 17.345,0.184 12,-1.625 12,-1.625 c 0,0 -2.716,4.516 -6.25,5 C 2.098,3.875 -0.042,1.604 -0.312,0.937 -0.583,0.271 -0.208,-0.062 0,0" /></g><g
           transform="translate(188.5898,89.2923)"
           id="g156"><path
             id="path158"
             style="fill:#d53527;fill-opacity:1;fill-rule:nonzero;stroke:none"
             d="M 0,0 C 0,0 -0.042,-2.417 -1.708,-2.625 -3.375,-2.833 -6.02,-2.458 -6.552,-3.833 -7.083,-5.208 -3.917,-7.5 -0.875,-7.167 2.167,-6.833 4.333,-4.333 4.75,0.5 5.167,5.333 3.973,7.514 3.167,7.917 2,8.5 1.417,7.333 1.083,6.583 0.75,5.833 0.458,4.833 0.458,4.833 c 0,0 -1.625,-0.166 -2.666,0.75 C -3.25,6.5 -3.585,8.719 -3.75,9.875 -3.917,11.042 -5.5,11.208 -6.25,9.292 -7,7.375 -6.958,4.167 -4.917,1.958 -3.315,0.225 0,0 0,0" /></g><g
           transform="translate(198.5065,92.209)"
           id="g160"><path
             id="path162"
             style="fill:#d53527;fill-opacity:1;fill-rule:nonzero;stroke:none"
             d="M 0,0 0.5,7.374 C 0.5,7.374 3.583,7.042 3.667,3.5 3.75,-0.042 0,0 0,0 m 4.667,8.324 c -2.584,2.009 -6.959,2.259 -8.25,1.968 C -4.875,10 -4,9.208 -3.417,8.917 c 0.584,-0.292 1.959,-0.593 1.959,-0.593 0,0 -1.709,-10.032 -2.459,-13.574 -0.75,-3.542 -2.791,-10.667 -3.25,-12.708 -0.458,-2.042 0.542,-4.167 2.5,-3.792 1.959,0.375 3.334,7.792 3.667,10.625 0.333,2.833 0.833,6.75 0.833,6.75 0,0 5.042,0.667 6.334,3.417 1.291,2.75 1.083,7.273 -1.5,9.282" /></g><g
           transform="translate(216.6314,92.2921)"
           id="g164"><path
             id="path166"
             style="fill:#d53527;fill-opacity:1;fill-rule:nonzero;stroke:none"
             d="m 0,0 c 0,0 -0.84,-1.916 -3.215,-1.791 -2.375,0.125 -3.41,1.958 -2.577,3.916 0.834,1.958 1.667,5.792 -0.916,6 -2.584,0.208 -4.709,-6.468 -0.959,-10.38 3.75,-3.912 8.292,0 8.292,0 0,0 0.792,-2.412 2.75,-2.453 1.958,-0.042 2.417,1.625 1.875,2.625 -0.542,1 -1.583,1.254 -1.667,3.793 C 3.5,4.25 3.75,8.125 2.375,8.333 1,8.542 0.333,5.917 0.083,3.958 -0.167,2 0,0 0,0" /></g><g
           transform="translate(224.5833,96.1098)"
           id="g168"><path
             id="path170"
             style="fill:#d53527;fill-opacity:1;fill-rule:nonzero;stroke:none"
             d="M 0,0 C 0.167,0.333 -0.42,2.776 1.917,3.474 3.927,4.073 5.423,2.641 5.173,0.141 4.936,-2.225 4.34,-3.443 1.215,-4.109 -1.91,-4.776 -0.952,-7.526 1.006,-7.651 c 1.959,-0.125 5.834,-1.875 6.25,-5.583 0.401,-3.565 -1.375,-8.875 -5.125,-9.917 -3.632,-1.009 -7.375,1.5 -7.041,4.417 0.333,2.916 1.414,4.493 -0.292,5.791 -1.917,1.459 -5.208,-1 -4.625,-5.791 0.58,-4.762 4.817,-9.266 11.458,-8.792 5.834,0.417 8.469,5.999 8.834,9.917 0.5,5.375 -0.875,7.083 -1.792,8.5 -0.917,1.416 -3.167,2.625 -3.167,2.625 0,0 2.834,1.958 2.709,6.041 C 8.09,3.641 5.84,5.807 3.131,5.849 0.423,5.891 -1.244,4.391 -1.702,2.391 -2.16,0.391 -1.619,-0.276 -1.41,-0.401 -1.202,-0.526 -0.167,-0.333 0,0" /></g><g
           transform="translate(234.5063,91.0838)"
           id="g172"><path
             id="path174"
             style="fill:#d53527;fill-opacity:1;fill-rule:nonzero;stroke:none"
             d="m 0,0 c 0.125,-1.292 1.583,-1.5 2.042,-0.667 0.458,0.834 0.75,3.75 1.083,5.042 0.333,1.292 1.125,2.25 1.292,0.792 0.166,-1.459 0.791,-4 3.208,-4.084 2.417,-0.083 3.792,4.816 3.792,4.816 0,0 -0.042,-6.732 1.958,-8.816 2,-2.083 5.324,-1.429 6.437,0.295 1.021,1.58 0.646,3.414 -0.604,3.914 C 17.958,1.792 17.167,0.25 16.792,0.208 16.417,0.167 15.864,3.579 15.458,5.499 15,7.667 13.958,8.75 12.75,8.75 11.542,8.75 10.25,7.667 9.667,6.458 9.083,5.25 8.708,3.875 7.875,3.875 7.042,3.875 7.5,9 4.125,9 0.75,9 0.583,6.5 0.292,4.75 0,3 0,0 0,0" /></g><g
           transform="translate(197.8129,113.5418)"
           id="g176"><path
             id="path178"
             style="fill:#d53527;fill-opacity:1;fill-rule:nonzero;stroke:none"
             d="M 0,0 C 0,0 -0.042,-2.417 -1.708,-2.625 -3.375,-2.833 -6.02,-2.458 -6.552,-3.833 -7.083,-5.208 -3.917,-7.5 -0.875,-7.167 2.167,-6.833 4.333,-4.333 4.75,0.5 5.167,5.333 3.973,7.514 3.167,7.917 2,8.5 1.417,7.333 1.083,6.583 0.75,5.833 0.458,4.833 0.458,4.833 c 0,0 -1.625,-0.166 -2.666,0.75 C -3.25,6.5 -3.585,8.719 -3.75,9.875 -3.917,11.042 -5.5,11.208 -6.25,9.292 -7,7.375 -6.958,4.167 -4.917,1.958 -3.315,0.225 0,0 0,0" /></g><g
           transform="translate(254.3327,114.7918)"
           id="g180"><path
             id="path182"
             style="fill:#d53527;fill-opacity:1;fill-rule:nonzero;stroke:none"
             d="m 0,0 c 0,0 -1.333,-2.375 -3.708,-2.25 -2.375,0.125 -2.917,2.417 -2.084,4.375 0.834,1.958 1.667,5.792 -0.916,6 -2.584,0.208 -4.709,-6.468 -0.959,-10.38 3.75,-3.912 8.292,0 8.292,0 0,0 0.792,-2.412 2.75,-2.453 1.958,-0.042 2.417,1.625 1.875,2.625 -0.542,1 -1.583,1.254 -1.667,3.793 C 3.5,4.25 3.75,8.125 2.375,8.333 1,8.542 0.333,5.917 0.083,3.958 -0.167,2 0,0 0,0" /></g><g
           transform="translate(252.9242,128.5418)"
           id="g184"><path
             id="path186"
             style="fill:#d53527;fill-opacity:1;fill-rule:nonzero;stroke:none"
             d="m 0,0 c 1.562,-0.042 3.5,0.646 3.625,-0.604 0.125,-1.25 -0.896,-3.084 -3.25,-3.104 -2.354,-0.021 -4.824,1.464 -4,3.583 C -3.188,1 -1.562,0.042 0,0" /></g><g
           transform="translate(185.7787,124.2867)"
           id="g188"><path
             id="path190"
             style="fill:#d53527;fill-opacity:1;fill-rule:nonzero;stroke:none"
             d="m 0,0 c 0,0 -3,2.005 -5,0.693 -2,-1.313 -2.5,-5.375 -0.312,-7 2.187,-1.625 3.5,-0.813 3.937,0 0.438,0.812 0.375,3.444 1.625,3.253 1.25,-0.191 1.437,-3.878 2.438,-4.816 1,-0.937 2.812,-0.329 3.249,-1.102 0.438,-0.773 0.688,-2.96 -1.687,-2.773 -2.375,0.188 -3.563,1.875 -3.563,1.875 0,0 -1.187,-1.437 -4.5,-1.25 -3.312,0.188 -6.75,4 -5.625,9.25 1.125,5.25 6.25,5.563 8.313,4.5 C 0.742,1.668 0.937,0.432 0.687,0 0.437,-0.432 0,0 0,0" /></g><g
           transform="translate(175.0019,132.8293)"
           id="g192"><path
             id="path194"
             style="fill:#d53527;fill-opacity:1;fill-rule:nonzero;stroke:none"
             d="m 0,0 c -0.277,-0.337 -4.225,-4.975 -5.193,-9.288 -0.968,-4.312 0.407,-7.375 1.532,-8.5 1.125,-1.125 4.125,-0.625 3.938,1.875 -0.188,2.5 -1.125,5.438 -0.688,8.438 0.438,3 2.121,6.771 1.533,7.812 C 0.839,0.837 0.277,0.337 0,0" /></g><g
           transform="translate(162.2163,116.9168)"
           id="g196"><path
             id="path198"
             style="fill:#d53527;fill-opacity:1;fill-rule:nonzero;stroke:none"
             d="M 0,0 C 0.788,0.368 5.81,3.625 7.593,11.188 9.375,18.75 6.75,23.739 2.25,24.625 c -4.5,0.886 -8.812,-2.539 -9.438,-5.875 -0.562,-3 2.603,-3.845 4.438,-2.688 1.882,1.189 3.125,4.125 5.375,2.438 C 4.875,16.812 3.944,11.391 3.75,10.491 3,7.014 -0.044,3.862 -0.617,3.268 -1.66,2.184 -2.188,1.625 -2,0.687 -1.813,-0.25 -0.654,-0.305 0,0" /></g><g
           transform="translate(161.5912,125.6043)"
           id="g200"><path
             id="path202"
             style="fill:#d53527;fill-opacity:1;fill-rule:nonzero;stroke:none"
             d="m 0,0 c 0.534,-0.97 2.438,-3.377 7.25,-3.44 4.813,-0.062 6.688,1.315 6.688,2.44 0,1.125 -0.875,1.5 -3.375,1 C 8.063,-0.5 7.44,-0.572 5.534,-0.124 3.627,0.323 1.5,1.562 0.562,1.5 -0.375,1.437 -0.335,0.609 0,0" /></g><g
           transform="translate(203.5911,121.4168)"
           id="g204"><path
             id="path206"
             style="fill:#d53527;fill-opacity:1;fill-rule:nonzero;stroke:none"
             d="m 0,0 c -0.292,-1.125 -0.292,-5.375 1.729,-6.646 2.021,-1.271 4.146,-0.791 4.146,-0.791 0,0 -0.125,-4.438 1.75,-4.563 1.875,-0.125 2.234,1.29 2.211,3.114 C 9.813,-7.062 10.313,2.028 9.063,2.514 7.812,3 6.937,1.687 6.687,-0.375 6.437,-2.438 6.396,-3.729 6.396,-3.729 c 0,0 -3.708,-0.708 -3.771,1.854 C 2.563,0.687 2.125,1.5 1.312,1.625 0.5,1.75 0.187,0.771 0,0" /></g><g
           transform="translate(218.6744,117.4168)"
           id="g208"><path
             id="path210"
             style="fill:#d53527;fill-opacity:1;fill-rule:nonzero;stroke:none"
             d="m 0,0 c 0,0 0.375,4.333 -0.667,4.792 -1.041,0.458 -2.375,0.125 -2.791,-4.25 -0.417,-4.375 -0.167,-7.167 0.708,-8.084 0.875,-0.916 2.375,-0.375 2.542,0.792 0.166,1.167 0.274,3 0.274,3 0,0 0.684,-0.625 2.476,-0.625 1.791,0 2.666,0.5 2.666,0.5 0,0 0.292,-3.667 1.542,-4.333 1.25,-0.667 3.083,-0.417 3.042,1.333 -0.042,1.75 -0.834,1.5 -1.167,3 C 8.292,-2.375 8.083,2.583 8.083,3.667 8.083,4.75 7.3,5.458 6.375,5.458 5.333,5.458 5.167,4.042 5.083,3 5,1.958 4.917,0.583 4.917,0.583 c 0,0 -0.709,-0.708 -2.042,-0.875 C 1.542,-0.458 0,0 0,0" /></g><g
           transform="translate(234.966,116.7206)"
           id="g212"><path
             id="path214"
             style="fill:#d53527;fill-opacity:1;fill-rule:nonzero;stroke:none"
             d="M 0,0 C 0,0 2.159,-0.332 2.201,-2.248 2.242,-4.165 0.987,-4.69 -0.292,-4.637 -2.407,-4.549 -3.125,-1.595 -2.458,2.071 -1.792,5.738 -2,7.593 -4,7.311 -6,7.03 -7,3.196 -6.333,-1.429 c 0.666,-4.625 4,-5.973 6.708,-5.882 2.708,0.091 4.708,2.757 3.708,6.007 -1,3.25 -4.902,2.417 -5.18,1.917 C -1.375,0.113 0,0 0,0" /></g><g
           transform="translate(241.8826,122.2501)"
           id="g216"><path
             id="path218"
             style="fill:#d53527;fill-opacity:1;fill-rule:nonzero;stroke:none"
             d="m 0,0 c 0,0 -1.708,-3.042 -1.625,-6.833 0.083,-3.792 1.25,-4.834 2.25,-4.792 1,0.042 2.292,0.875 1.708,2.625 -0.583,1.75 -0.833,3.25 -0.791,5.25 0.041,2 0.166,3.417 -0.5,3.917 C 0.375,0.667 0,0 0,0" /></g></g></g></g></svg>